<?xml version="1.0" encoding="UTF-8" standalone="no"?>
<svg
   width="500"
   zoomAndPan="magnify"
   viewBox="0 0 375 112.5"
   height="150"
   preserveAspectRatio="xMidYMid"
   version="1.0"
   id="svg39"
   sodipodi:docname="logo-dark.svg"
   inkscape:version="1.3.2 (091e20e, 2023-11-25, custom)"
   xmlns:inkscape="http://www.inkscape.org/namespaces/inkscape"
   xmlns:sodipodi="http://sodipodi.sourceforge.net/DTD/sodipodi-0.dtd"
   xmlns="http://www.w3.org/2000/svg"
   xmlns:svg="http://www.w3.org/2000/svg">
  <sodipodi:namedview
     id="namedview39"
     pagecolor="#ffffff"
     bordercolor="#000000"
     borderopacity="0.25"
     inkscape:showpageshadow="2"
     inkscape:pageopacity="0.0"
     inkscape:pagecheckerboard="true"
     inkscape:deskcolor="#d1d1d1"
     inkscape:zoom="2.346"
     inkscape:cx="250"
     inkscape:cy="250"
     inkscape:window-width="2560"
     inkscape:window-height="1369"
     inkscape:window-x="-8"
     inkscape:window-y="-8"
     inkscape:window-maximized="1"
     inkscape:current-layer="svg39" />
  <defs
     id="defs12">
    <g
       id="g1" />
    <clipPath
       id="4b16807820">
      <path
         d="m 37.5,142.21094 h 55.34375 v 16.78515 H 37.5 Z m 0,0"
         clip-rule="nonzero"
         id="path1" />
    </clipPath>
    <clipPath
       id="81512ebdf8">
      <path
         d="m 37.5,200.70703 h 58.246094 v 15.95703 H 37.5 Z m 0,0"
         clip-rule="nonzero"
         id="path2" />
    </clipPath>
    <clipPath
       id="4b6cc78385">
      <path
         d="m 79.734375,200.70703 h 32.031255 v 15.95703 H 79.734375 Z m 0,0"
         clip-rule="nonzero"
         id="path3" />
    </clipPath>
    <clipPath
       id="fd673e7379">
      <path
         d="m 95.746094,200.70703 16.015626,15.95703 H 79.734375 Z m 0,0"
         clip-rule="nonzero"
         id="path4" />
    </clipPath>
    <clipPath
       id="36cf8cdeb0">
      <path
         d="m 95.167969,142.40234 h 16.593751 v 16.59375 H 95.167969 Z m 0,0"
         clip-rule="nonzero"
         id="path5" />
    </clipPath>
    <clipPath
       id="cc32d0e61f">
      <path
         d="m 103.46484,142.40234 c -4.585934,0 -8.296871,3.71485 -8.296871,8.29688 0,4.58203 3.710937,8.29687 8.296871,8.29687 4.58204,0 8.29688,-3.71484 8.29688,-8.29687 0,-4.58203 -3.71484,-8.29688 -8.29688,-8.29688 z m 0,0"
         clip-rule="nonzero"
         id="path6" />
    </clipPath>
    <clipPath
       id="2ebb6ee382">
      <path
         d="m 37.5,169.28125 h 51.53125 v 16.78906 H 37.5 Z m 0,0"
         clip-rule="nonzero"
         id="path7" />
    </clipPath>
    <clipPath
       id="5091f20c0c">
      <path
         d="m 37.492188,142.40625 h 16.785156 v 74.25781 H 37.492188 Z m 0,0"
         clip-rule="nonzero"
         id="path8" />
    </clipPath>
    <clipPath
       id="89e152c9fd">
      <path
         d="m 112,119 h 139 v 40 H 112 Z m 0,0"
         clip-rule="nonzero"
         id="path9" />
    </clipPath>
    <clipPath
       id="9a7d791eb5">
      <path
         d="m 201.31641,216.53125 -89.54688,-75.30078 51.16406,-60.847658 89.55078,75.300778 z m 0,0"
         clip-rule="nonzero"
         id="path10" />
    </clipPath>
    <clipPath
       id="c234702014">
      <path
         d="m 201.31641,216.53125 -89.54688,-75.30078 51.16406,-60.847658 89.55078,75.300778 z m 0,0"
         clip-rule="nonzero"
         id="path11" />
    </clipPath>
    <clipPath
       id="4aeecedba8">
      <path
         d="m 96,179.13672 h 63 v 37.5 H 96 Z m 0,0"
         clip-rule="nonzero"
         id="path12" />
    </clipPath>
  </defs>
  <g
     clip-path="url(#4b16807820)"
     id="g13"
     transform="translate(0,-112.5)">
    <path
       fill="#ffffff"
       d="m 37.5,142.21094 h 55.339844 v 16.78515 H 37.5 Z m 0,0"
       fill-opacity="1"
       fill-rule="nonzero"
       id="path13" />
  </g>
  <g
     clip-path="url(#81512ebdf8)"
     id="g14"
     transform="translate(0,-112.5)">
    <path
       fill="#ffffff"
       d="m 37.5,200.70703 h 58.273438 v 15.95703 H 37.5 Z m 0,0"
       fill-opacity="1"
       fill-rule="nonzero"
       id="path14" />
  </g>
  <g
     clip-path="url(#4b6cc78385)"
     id="g16"
     transform="translate(0,-112.5)">
    <g
       clip-path="url(#fd673e7379)"
       id="g15">
      <path
         fill="#ffffff"
         d="m 79.734375,200.70703 h 32.031255 v 15.95703 H 79.734375 Z m 0,0"
         fill-opacity="1"
         fill-rule="nonzero"
         id="path15" />
    </g>
  </g>
  <g
     clip-path="url(#36cf8cdeb0)"
     id="g18"
     transform="translate(0,-112.5)">
    <g
       clip-path="url(#cc32d0e61f)"
       id="g17">
      <path
         fill="#ffffff"
         d="m 95.167969,142.40234 h 16.593751 v 16.59375 H 95.167969 Z m 0,0"
         fill-opacity="1"
         fill-rule="nonzero"
         id="path16" />
    </g>
  </g>
  <g
     clip-path="url(#2ebb6ee382)"
     id="g19"
     transform="translate(0,-112.5)">
    <path
       fill="#ffffff"
       d="m 37.5,169.28125 h 51.539062 v 16.78906 H 37.5 Z m 0,0"
       fill-opacity="1"
       fill-rule="nonzero"
       id="path18" />
  </g>
  <g
     clip-path="url(#5091f20c0c)"
     id="g20"
     transform="translate(0,-112.5)">
    <path
       fill="#ffffff"
       d="m 54.277344,142.40625 v 74.28906 H 37.492188 v -74.28906 z m 0,0"
       fill-opacity="1"
       fill-rule="nonzero"
       id="path19" />
  </g>
  <g
     fill="#008947"
     fill-opacity="1"
     id="g23"
     transform="translate(0,-112.5)">
    <g
       transform="translate(246.76261,215.72286)"
       id="g22">
      <g
         id="g21">
        <path
           d="m 9.28125,-39.277344 c 2.222656,0 4.15625,-0.804687 5.796875,-2.449218 1.613281,-1.640626 2.417969,-3.574219 2.417969,-5.832032 0,-2.222656 -0.804688,-4.15625 -2.417969,-5.796875 -1.640625,-1.613281 -3.574219,-2.417969 -5.796875,-2.417969 -2.289062,0 -4.222656,0.804688 -5.832031,2.417969 C 1.804688,-51.714844 1,-49.78125 1,-47.558594 c 0,2.289063 0.804688,4.222656 2.449219,5.832032 1.640625,1.644531 3.574219,2.449218 5.832031,2.449218 z M 1.964844,0 h 14.53125 V -36.28125 H 1.964844 Z m 0,0"
           id="path20" />
      </g>
    </g>
  </g>
  <g
     fill="#008947"
     fill-opacity="1"
     id="g26"
     transform="translate(0,-112.5)">
    <g
       transform="translate(265.22429,215.72286)"
       id="g25">
      <g
         id="g24">
        <path
           d="M 40.5,0 V -18.140625 C 40.5,-24.328125 39.4375,-29 37.277344,-32.1875 c -2.15625,-3.191406 -5.734375,-4.769531 -10.761719,-4.769531 -4.765625,0 -8.472656,1.578125 -10.019531,4.285156 L 15.851562,-36.28125 H 1.964844 V 0 h 14.53125 v -18.140625 c 0,-4.382813 1.644531,-6.570313 4.929687,-6.570313 3.191407,0 4.574219,2.1875 4.574219,6.570313 V 0 Z m 0,0"
           id="path23" />
      </g>
    </g>
  </g>
  <g
     fill="#008947"
     fill-opacity="1"
     id="g29"
     transform="translate(0,-112.5)">
    <g
       transform="translate(307.68935,215.72286)"
       id="g28">
      <g
         id="g27">
        <path
           d="M 5.960938,-36.28125 H 1.964844 v 11.214844 h 3.996094 v 10.308594 c 0,5.316406 1.128906,9.183593 3.382812,11.664062 2.222656,2.480469 5.960938,3.738281 11.148438,3.738281 2.417968,0 4.929687,-0.160156 7.476562,-0.484375 v -11.824218 c -2.484375,0.417968 -4.351562,0.289062 -5.640625,-0.355469 -1.222656,-0.609375 -1.835937,-1.707031 -1.835937,-3.285157 v -9.761718 H 27.96875 V -36.28125 h -7.476562 v -7.988281 H 5.960938 Z m 0,0"
           id="path26" />
      </g>
    </g>
  </g>
  <g
     fill="#ffffff"
     fill-opacity="1"
     id="g32"
     transform="translate(0,-112.5)">
    <g
       transform="translate(160.70558,215.76124)"
       id="g31">
      <g
         id="g30">
        <path
           d="m 26.515625,-36.953125 c -4.800781,0 -8.472656,1.578125 -10.019531,4.285156 V -49.488281 H 1.964844 V 0 h 13.886718 l 0.644532,-3.640625 c 1.546875,2.738281 5.21875,4.285156 10.019531,4.285156 4.671875,0 8.539063,-1.738281 11.664063,-5.1875 3.09375,-3.445312 4.636718,-7.988281 4.636718,-13.597656 0,-5.605469 -1.542968,-10.148437 -4.636718,-13.625 -3.125,-3.449219 -6.992188,-5.1875 -11.664063,-5.1875 z m -4.125,25.386719 c -3.445313,0 -5.894531,-2.449219 -5.894531,-6.574219 0,-4.121094 2.449218,-6.570313 5.894531,-6.570313 3.449219,0 5.929687,2.449219 5.929687,6.570313 0,2.0625 -0.546874,3.675781 -1.675781,4.835937 -1.128906,1.160157 -2.546875,1.738282 -4.253906,1.738282 z m 0,0"
           id="path29" />
      </g>
    </g>
  </g>
  <g
     fill="#ffffff"
     fill-opacity="1"
     id="g35"
     transform="translate(0,-112.5)">
    <g
       transform="translate(204.48608,215.76124)"
       id="g34">
      <g
         id="g33">
        <path
           d="m 21.425781,-36.953125 c -5.511719,0 -10.535156,1.675781 -14.304687,4.734375 C 3.351562,-29.15625 1,-24.164062 1,-18.140625 1,-12.113281 3.351562,-7.152344 7.121094,-4.089844 10.890625,-1 15.914062,0.644531 21.425781,0.644531 c 3.640625,0 6.992188,-0.707031 10.082031,-2.160156 3.09375,-1.417969 5.542969,-3.476563 7.347657,-6.183594 l -12.371094,-5.960937 c -1.320313,2.09375 -2.773437,3.058594 -5.058594,3.058594 -2.417969,0 -4.382812,-1.449219 -5.316406,-3.929688 h 25.066406 c 0.644531,-7.25 -1.160156,-13.144531 -4.738281,-16.816406 -3.605469,-3.671875 -8.828125,-5.605469 -15.011719,-5.605469 z m -5.414062,15.171875 c 0.804687,-2.609375 2.609375,-3.929688 5.414062,-3.929688 2.800781,0 4.605469,1.320313 5.410157,3.929688 z m 0,0"
           id="path32" />
      </g>
    </g>
  </g>
  <g
     clip-path="url(#89e152c9fd)"
     id="g38"
     transform="translate(0,-112.5)">
    <g
       clip-path="url(#9a7d791eb5)"
       id="g37">
      <g
         clip-path="url(#c234702014)"
         id="g36">
        <path
           fill="#ffffff"
           d="m 113.20313,142.08984 c 0.63281,0.83985 1.82421,1.01172 2.66796,0.38282 19.52735,-14.60157 44.61328,-21.3125 68.82422,-18.41797 24.21094,2.89844 47.00391,15.33984 62.53906,34.13281 0.66797,0.8125 1.8711,0.92578 2.67969,0.25781 0.8125,-0.67187 0.92578,-1.87109 0.25781,-2.68359 -3.78125,-4.57031 -7.96875,-8.77735 -12.49609,-12.58594 -14.82031,-12.46484 -33.24219,-20.59765 -52.52734,-22.90234 -25.17188,-3.01172 -51.25391,3.96484 -71.5586,19.14843 -0.84375,0.62891 -1.01562,1.82422 -0.38671,2.66407 z m 0,0"
           fill-opacity="1"
           fill-rule="nonzero"
           id="path35" />
      </g>
    </g>
  </g>
  <g
     clip-path="url(#4aeecedba8)"
     id="g39"
     transform="translate(0,-112.5)">
    <path
       fill="#ffffff"
       d="m 145.28906,179.13672 c -5.57812,0 -9.54687,2.28906 -11.96484,6.88281 -1.95703,-4.59375 -5.82813,-6.88281 -11.66406,-6.88281 -4.82422,0 -8.57813,1.59375 -10.14453,4.33203 l -0.64844,-3.65234 H 96.8125 v 20.23046 l 14.97656,14.86329 -0.27343,-16.73829 c -0.0664,-4.32812 1.64062,-6.64843 4.63671,-6.64843 2.8711,0 4.30469,2.21875 4.30469,6.64843 v 18.35938 h 14.69141 v -18.35938 c 0,-4.33203 1.63672,-6.64843 4.63672,-6.64843 2.86718,0 4.30078,2.21875 4.30078,6.64843 v 18.35938 h 14.70703 v -18.35938 c 0,-6.25781 -0.78125,-10.53125 -2.73828,-13.94921 -2,-3.39063 -5.55078,-5.08594 -10.76563,-5.08594 z m 0,0"
       fill-opacity="1"
       fill-rule="nonzero"
       id="path38" />
  </g>
</svg>
